<svg xmlns="http://www.w3.org/2000/svg" width="433" height="97" viewBox="0 0 433 97" fill="none">
<path d="M53.5909 28.6818C53.2273 25.0151 51.6667 22.1667 48.9091 20.1364C46.1515 18.1061 42.4091 17.0909 37.6818 17.0909C34.4697 17.0909 31.7576 17.5455 29.5455 18.4545C27.3333 19.3333 25.6364 20.5606 24.4545 22.1364C23.303 23.7121 22.7273 25.5 22.7273 27.5C22.6667 29.1667 23.0152 30.6212 23.7727 31.8636C24.5606 33.1061 25.6364 34.1818 27 35.0909C28.3636 35.9697 29.9394 36.7424 31.7273 37.4091C33.5152 38.0455 35.4242 38.5909 37.4546 39.0455L45.8182 41.0455C49.8788 41.9545 53.6061 43.1667 57 44.6818C60.3939 46.197 63.3333 48.0606 65.8182 50.2727C68.303 52.4848 70.2273 55.0909 71.5909 58.0909C72.9849 61.0909 73.697 64.5303 73.7273 68.4091C73.697 74.1061 72.2424 79.0455 69.3636 83.2273C66.5152 87.3788 62.3939 90.6061 57 92.9091C51.6364 95.1818 45.1667 96.3182 37.5909 96.3182C30.0758 96.3182 23.5303 95.1667 17.9545 92.8636C12.4091 90.5606 8.07576 87.1515 4.95455 82.6364C1.86364 78.0909 0.242427 72.4697 0.0909119 65.7727H19.1364C19.3485 68.8939 20.2424 71.5 21.8182 73.5909C23.4242 75.6515 25.5606 77.2121 28.2273 78.2727C30.9242 79.303 33.9697 79.8182 37.3636 79.8182C40.697 79.8182 43.5909 79.3333 46.0455 78.3636C48.5303 77.3939 50.4546 76.0455 51.8182 74.3182C53.1818 72.5909 53.8636 70.6061 53.8636 68.3636C53.8636 66.2727 53.2424 64.5152 52 63.0909C50.7879 61.6667 49 60.4545 46.6364 59.4545C44.303 58.4545 41.4394 57.5455 38.0455 56.7273L27.9091 54.1818C20.0606 52.2727 13.8636 49.2879 9.31818 45.2273C4.77273 41.1667 2.51515 35.697 2.54546 28.8182C2.51515 23.1818 4.01515 18.2576 7.04546 14.0455C10.1061 9.83333 14.303 6.54545 19.6364 4.18182C24.9697 1.81818 31.0303 0.63636 37.8182 0.63636C44.7273 0.63636 50.7576 1.81818 55.9091 4.18182C61.0909 6.54545 65.1212 9.83333 68 14.0455C70.8788 18.2576 72.3636 23.1364 72.4545 28.6818H53.5909Z" fill="url(#paint0_linear_206_19)"/>
<path d="M86.9659 95V1.90909H106.648V40.3182H146.602V1.90909H166.239V95H146.602V56.5455H106.648V95H86.9659Z" fill="url(#paint1_linear_206_19)"/>
<path d="M198.511 95H177.42L209.557 1.90909H234.92L267.011 95H245.92L222.602 23.1818H221.875L198.511 95ZM197.193 58.4091H247.011V73.7727H197.193V58.4091Z" fill="url(#paint2_linear_206_19)"/>
<path d="M289.795 95L263.159 1.90909H284.659L300.068 66.5909H300.841L317.841 1.90909H336.25L353.205 66.7273H354.023L369.432 1.90909H390.932L364.295 95H345.114L327.386 34.1364H326.659L308.977 95H289.795Z" fill="url(#paint3_linear_206_19)"/>
<circle  cx="412" cy="75" r="21" fill="#0D5B58"/>
<circle  cx="409.5" cy="72.5" r="15.5" fill="#31A29D"/>
<circle  cx="407.5" cy="70.5" r="10.5" fill="#BFEEEC"/>
<defs >
<linearGradient id="paint0_linear_206_19" x1="218" y1="-12.5" x2="215.5" y2="112" gradientUnits="userSpaceOnUse">
<stop stop-color="#27CDB9" stop-opacity="1"/>
<stop offset="1" stop-color="#27CDB9" stop-opacity="0.25"/>
</linearGradient>
<linearGradient id="paint1_linear_206_19" x1="218" y1="-12.5" x2="215.5" y2="112" gradientUnits="userSpaceOnUse">
<stop stop-color="#27CDB9" stop-opacity="1"/>
<stop offset="1" stop-color="#27CDB9" stop-opacity="0.25"/>
</linearGradient>
<linearGradient id="paint2_linear_206_19" x1="218" y1="-12.5" x2="215.5" y2="112" gradientUnits="userSpaceOnUse">
<stop stop-color="#27CDB9" stop-opacity="1"/>
<stop offset="1" stop-color="#27CDB9" stop-opacity="0.25"/>
</linearGradient>
<linearGradient id="paint3_linear_206_19" x1="218" y1="-12.5" x2="215.5" y2="112" gradientUnits="userSpaceOnUse">
<stop stop-color="#27CDB9" stop-opacity="1"/>
<stop offset="1" stop-color="#27CDB9" stop-opacity="0.25"/>
</linearGradient>
</defs>
</svg>