<svg width="224" height="224" viewBox="0 0 224 224" fill="none" xmlns="http://www.w3.org/2000/svg">
<path d="M34.8403 100.861V87.5445H45.6898V128.292H34.8403V125.747C34.0624 126.489 33.1893 127.094 32.2225 127.559C30.6923 128.296 28.9707 128.663 27.0654 128.663C24.2881 128.663 21.8274 128.011 19.6982 126.703C17.5689 125.396 15.9148 123.555 14.7435 121.193C13.5797 118.847 13 116.151 13 113.113C13 110.11 13.571 107.457 14.7179 105.164C15.8722 102.855 17.5006 101.058 19.5952 99.7865C21.6886 98.5155 24.1128 97.8815 26.8534 97.8815C28.7942 97.8815 30.5512 98.2574 32.1167 99.0118C33.1215 99.4961 34.0299 100.113 34.8403 100.861ZM29.3979 119.828C31.0318 119.828 32.3186 119.253 33.3131 118.088C34.3284 116.898 34.8403 115.339 34.8403 113.378C34.8403 111.383 34.3286 109.816 33.3162 108.646C32.322 107.496 31.0339 106.929 29.3979 106.929C27.7625 106.929 26.4651 107.504 25.4526 108.673C24.4218 109.862 23.9025 111.42 23.9025 113.378C23.9025 115.337 24.4218 116.894 25.4526 118.084C26.4651 119.252 27.7625 119.828 29.3979 119.828ZM67.2503 109.65C67.1739 108.676 66.8012 107.945 66.1281 107.412C65.3317 106.781 64.1322 106.452 62.5118 106.452C61.3742 106.452 60.0809 106.638 58.6336 107.012C57.1785 107.389 55.7122 107.938 54.2343 108.659L53.5553 108.991L50.4152 101.301L51.0341 101.02C53.4062 99.9413 55.6839 99.14 57.8677 98.6167C60.0603 98.0911 62.3332 97.8285 64.6852 97.8285C68.7964 97.8285 72.0297 98.7855 74.3607 100.722C76.7184 102.68 77.918 105.432 77.9555 108.925V128.292H67.2651V126.124C65.2842 127.853 62.6275 128.716 59.3312 128.716C56.1223 128.716 53.5542 127.835 51.6643 126.059C49.768 124.278 48.8174 121.926 48.8174 119.05C48.8174 116.122 49.854 113.797 51.9175 112.138C53.9463 110.508 56.81 109.687 60.4974 109.65H67.2503ZM67.2651 117.79V116.099H62.3527C60.0552 116.099 59.0838 116.825 59.0838 118.361C59.0838 119.148 59.3412 119.736 59.8672 120.181C60.4176 120.646 61.2015 120.888 62.2467 120.888C63.5274 120.888 64.6303 120.581 65.5723 119.969C66.4608 119.391 67.016 118.671 67.2651 117.79ZM88.2219 96.4856C86.5873 96.4856 85.2118 95.9354 84.1392 94.8426C83.07 93.7532 82.5321 92.3729 82.5321 90.7428C82.5321 89.0767 83.0703 87.6853 84.1439 86.6118C85.2164 85.5392 86.59 85 88.2219 85C89.8538 85 91.2273 85.5392 92.2999 86.6118C93.3734 87.6853 93.9117 89.0767 93.9117 90.7428C93.9117 92.3729 93.3738 93.7532 92.3045 94.8426C91.232 95.9354 89.8564 96.4856 88.2219 96.4856ZM93.6996 98.1996V128.292H82.9031V98.1996H93.6996ZM110.38 128.716C107.872 128.716 105.469 128.361 103.174 127.651C100.868 126.937 98.8124 125.882 97.0125 124.486L96.5589 124.134L100.14 116.78L100.818 117.251C102.391 118.345 104.038 119.19 105.761 119.787C107.474 120.381 109.084 120.676 110.592 120.676C111.401 120.676 112.021 120.549 112.452 120.313C112.78 120.133 112.907 119.932 112.907 119.634C112.907 119.218 112.678 118.903 112.111 118.625C111.364 118.26 110.156 117.849 108.482 117.395C106.44 116.786 104.752 116.185 103.413 115.588C102.005 114.96 100.779 114.019 99.7388 112.771C98.6544 111.469 98.1172 109.789 98.1172 107.759C98.1172 104.642 99.3144 102.161 101.687 100.382C104.008 98.6404 106.984 97.7755 110.592 97.7755C112.742 97.7755 114.864 98.067 116.957 98.6496C119.052 99.2324 121.029 100.089 122.887 101.218L123.451 101.561L119.64 108.927L119.011 108.597C115.392 106.702 112.455 105.762 110.221 105.762C109.529 105.762 109 105.884 108.627 106.11C108.345 106.281 108.224 106.501 108.224 106.858C108.224 107.197 108.443 107.485 109 107.763C109.727 108.126 110.925 108.537 112.593 108.989C114.668 109.597 116.399 110.198 117.789 110.794C119.252 111.421 120.518 112.372 121.578 113.641C122.68 114.96 123.226 116.667 123.226 118.732C123.226 121.853 121.999 124.336 119.571 126.114C117.196 127.853 114.126 128.716 110.38 128.716ZM136.865 126.865L124.703 98.1996H135.966L142.272 115.407L147.894 98.1996H158.824L158.448 99.1636L146.145 130.662C145.002 133.466 143.454 135.563 141.497 136.937C139.534 138.315 137.112 139 134.253 139C132.585 139 131.023 138.749 129.569 138.245C128.114 137.742 126.702 136.953 125.335 135.881L124.843 135.496L129.515 127.73L130.149 128.264C130.768 128.785 131.344 129.153 131.871 129.37C132.386 129.582 132.931 129.688 133.51 129.688C134.796 129.688 135.704 129.115 136.329 127.895L136.865 126.865Z" fill="#5A0EF8" stroke="white" stroke-width="2"/>
<path d="M179.418 128.981C175.918 128.981 172.83 128.303 170.164 126.942C167.481 125.573 165.401 123.613 163.936 121.073C162.476 118.541 161.747 115.601 161.747 112.265V89.7179H172.862V112.265C172.862 114.421 173.485 116.116 174.729 117.391C175.971 118.665 177.537 119.298 179.471 119.298C181.363 119.298 182.861 118.678 184.014 117.431C185.175 116.174 185.761 114.465 185.761 112.265V89.7179H196.876V112.265C196.876 115.598 196.167 118.536 194.744 121.067C193.315 123.608 191.27 125.57 188.622 126.941C185.989 128.303 182.919 128.981 179.418 128.981ZM211.789 128.292H200.675V89.7179H211.789V128.292Z" fill="#2D3748" stroke="white" stroke-width="2"/>
</svg>
